<svg width="17" height="16" viewBox="0 0 17 16" fill="none" xmlns="http://www.w3.org/2000/svg">
<path d="M9.25 2.75C9.25 3.57843 7.40317 4.25 5.125 4.25C2.84683 4.25 1 3.57843 1 2.75M9.25 2.75C9.25 1.92157 7.40317 1.25 5.125 1.25C2.84683 1.25 1 1.92157 1 2.75M9.25 2.75V6.09286C8.33387 6.36799 7.75 6.7842 7.75 7.25M1 2.75V11.75C1 12.5784 2.84683 13.25 5.125 13.25C6.12222 13.25 7.03679 13.1213 7.75 12.9071V7.25M1 5.75C1 6.57843 2.84683 7.25 5.125 7.25C6.12222 7.25 7.03679 7.12132 7.75 6.90714M1 8.75C1 9.57843 2.84683 10.25 5.125 10.25C6.12222 10.25 7.03679 10.1213 7.75 9.90714M16 7.25C16 8.07843 14.1532 8.75 11.875 8.75C9.59683 8.75 7.75 8.07843 7.75 7.25M16 7.25C16 6.42157 14.1532 5.75 11.875 5.75C9.59683 5.75 7.75 6.42157 7.75 7.25M16 7.25V13.25C16 14.0784 14.1532 14.75 11.875 14.75C9.59683 14.75 7.75 14.0784 7.75 13.25V7.25M16 10.25C16 11.0784 14.1532 11.75 11.875 11.75C9.59683 11.75 7.75 11.0784 7.75 10.25" stroke="#FCFDFF" stroke-opacity="0.937" stroke-width="1.5" stroke-linecap="round" stroke-linejoin="round"/>
</svg>
